<?xml version="1.0" encoding="iso-8859-1"?>
<!-- Generator: Adobe Illustrator 19.0.0, SVG Export Plug-In . SVG Version: 6.00 Build 0)  -->
<svg version="1.1" id="Layer_1" xmlns="http://www.w3.org/2000/svg" xmlns:xlink="http://www.w3.org/1999/xlink" x="0px" y="0px"
	 viewBox="0 0 511.999 511.999" style="enable-background:new 0 0 511.999 511.999;" xml:space="preserve">
<g>
	<path style="fill:#EAA0E3;" d="M16.404,261.346h45.329v-32.809H16.404C7.345,228.537,0,235.881,0,244.942l0,0
		C0,254.002,7.345,261.346,16.404,261.346z"/>
	<path style="fill:#EAA0E3;" d="M495.594,228.537h-45.329v32.81h45.329c9.06,0,16.404-7.345,16.404-16.404l0,0
		C512,235.881,504.655,228.537,495.594,228.537z"/>
</g>
<rect x="221.163" y="45.508" transform="matrix(-0.9828 0.1845 -0.1845 -0.9828 491.9844 92.9541)" style="fill:#CCCCCC;" width="41.009" height="47.718"/>
<path style="fill:#E6E6E6;" d="M451.993,187.094H60.006v261.099c0,30.324,24.583,54.907,54.907,54.907h282.172
	c30.324,0,54.907-24.583,54.907-54.907L451.993,187.094L451.993,187.094z"/>
<path style="fill:#CCCCCC;" d="M111.811,448.193V187.094H60.006v261.099c0,30.324,24.583,54.907,54.907,54.907h51.805
	C136.394,503.1,111.811,478.517,111.811,448.193z"/>
<path style="fill:#E6E6E6;" d="M418.772,48.745l-349.617,65.63c-22.496,4.223-37.309,25.883-33.086,48.378l0,0l431.081-80.922l0,0
	C462.926,59.336,441.267,44.523,418.772,48.745z"/>
<path style="fill:#CCCCCC;" d="M140.436,100.994l-71.281,13.381c-22.496,4.223-37.309,25.883-33.086,48.378l0,0l71.282-13.381l0,0
	C103.127,126.877,117.94,105.217,140.436,100.994z"/>
<path style="fill:#EAA0E3;" d="M255.431,9.273l-48.794,9.159c-11.716,2.199-19.431,13.48-17.232,25.197l0,0
	c2.199,11.716,13.48,19.431,25.197,17.232l48.794-9.159c11.716-2.199,19.431-13.48,17.232-25.197l0,0
	C278.429,14.789,267.148,7.073,255.431,9.273z"/>
<path style="fill:#D57CD4;" d="M217.484,43.629L217.484,43.629c-2.199-11.716,5.516-22.998,17.232-25.197l35.437-6.652
	c-4.301-2.472-9.465-3.494-14.722-2.507l-48.794,9.159c-11.716,2.199-19.431,13.48-17.232,25.197l0,0
	c2.199,11.716,13.48,19.431,25.197,17.232l13.357-2.507C222.677,55.318,218.697,50.088,217.484,43.629z"/>
<path style="fill:#EC589B;" d="M407.758,51.192c0-23.128,15.924-41.877,35.567-41.877c24.554,0,44.46,23.436,44.46,52.346
	c0,36.137-42.824,71.467-80.027,90.486c-37.203-19.019-80.027-54.349-80.027-90.486c0-28.909,19.905-52.346,44.46-52.346
	C391.833,9.315,407.758,28.063,407.758,51.192z"/>
<g>
</g>
<g>
</g>
<g>
</g>
<g>
</g>
<g>
</g>
<g>
</g>
<g>
</g>
<g>
</g>
<g>
</g>
<g>
</g>
<g>
</g>
<g>
</g>
<g>
</g>
<g>
</g>
<g>
</g>
</svg>
